<?xml version="1.0" standalone="no"?>
<!DOCTYPE svg PUBLIC "-//W3C//DTD SVG 20010904//EN"
 "http://www.w3.org/TR/2001/REC-SVG-20010904/DTD/svg10.dtd">
<svg version="1.0" xmlns="http://www.w3.org/2000/svg"
 width="2000.000000pt" height="2000.000000pt" viewBox="0 0 2000.000000 2000.000000"
 preserveAspectRatio="xMidYMid meet">

<g transform="translate(0.000000,2000.000000) scale(0.100000,-0.100000)"
fill="#000000" stroke="none">
<path d="M9707 19722 c-9 -9 -45 -92 -81 -182 -252 -644 -578 -1374 -916
-2055 -224 -451 -337 -661 -727 -1355 -502 -893 -699 -1283 -868 -1715 -204
-520 -295 -945 -295 -1375 0 -406 84 -793 283 -1297 94 -237 176 -412 492
-1048 277 -556 386 -785 474 -995 37 -86 36 -86 -55 35 -548 727 -1395 1360
-2304 1723 -1155 460 -2217 486 -3174 77 -574 -245 -1056 -614 -1401 -1073
-321 -426 -517 -950 -576 -1536 -16 -159 -7 -595 16 -736 81 -514 250 -916
532 -1265 160 -198 410 -425 663 -602 430 -301 1093 -606 1613 -742 72 -19 82
-19 108 -6 46 24 46 52 0 214 -141 492 -171 991 -82 1366 138 580 687 1083
1342 1229 445 99 948 17 1454 -238 367 -186 656 -406 1026 -782 153 -157 369
-400 369 -416 0 -3 -84 -8 -187 -10 -188 -3 -188 -3 -255 -35 -241 -114 -307
-434 -127 -618 l39 -41 -44 -21 c-75 -37 -171 -136 -211 -217 -55 -111 -70
-183 -69 -326 0 -147 15 -217 74 -337 49 -99 127 -188 202 -228 29 -15 55 -30
57 -31 2 -2 -8 -19 -23 -39 -15 -19 -39 -61 -54 -93 -24 -51 -27 -69 -27 -167
0 -100 3 -116 28 -171 74 -159 170 -192 557 -194 l155 -1 -60 -57 c-268 -254
-878 -280 -1210 -52 -245 168 -396 537 -357 868 28 240 160 519 363 768 39 47
74 96 79 110 13 34 -12 81 -48 91 -42 12 -435 8 -557 -6 -658 -74 -1093 -298
-1414 -726 -441 -587 -467 -1444 -63 -2060 164 -252 427 -502 693 -663 413
-248 891 -373 1424 -373 469 0 865 88 1260 281 241 117 397 224 569 390 288
277 489 605 674 1100 28 74 56 157 63 183 7 26 17 47 21 47 4 0 8 -117 8 -259
l0 -260 -67 -88 c-37 -48 -232 -304 -433 -568 -201 -264 -396 -520 -433 -568
-82 -108 -85 -129 -28 -208 187 -262 1527 -2083 1554 -2112 18 -20 42 -37 52
-37 10 0 33 17 52 37 28 31 504 676 1445 1956 112 154 138 195 138 222 0 26
-15 54 -67 122 -37 48 -232 304 -433 568 -201 264 -396 520 -433 568 l-67 88
0 222 c0 121 4 217 8 212 5 -6 30 -68 56 -140 179 -484 385 -819 672 -1095
172 -166 328 -273 569 -390 395 -193 791 -281 1260 -281 533 0 1011 125 1424
373 266 161 529 411 693 663 404 616 378 1473 -63 2060 -251 336 -579 548
-1009 654 -254 62 -438 84 -725 85 -115 1 -222 -2 -237 -7 -36 -10 -61 -57
-48 -91 5 -14 40 -63 79 -110 204 -250 336 -531 363 -772 32 -279 -72 -594
-255 -777 -69 -69 -128 -110 -221 -152 -343 -159 -852 -105 -1090 115 l-59 55
274 5 c258 5 278 7 333 29 126 50 206 162 214 300 7 123 -26 216 -111 307
l-38 42 44 26 c100 58 204 215 244 366 24 90 24 292 0 380 -30 114 -80 201
-152 269 -36 34 -88 73 -116 87 l-51 25 47 50 c62 67 87 126 93 221 8 131 -48
261 -143 333 -19 15 -66 39 -103 53 -62 24 -82 26 -295 31 l-227 6 97 110
c130 149 432 448 573 569 258 221 491 379 750 510 425 215 831 309 1224 285
654 -42 1300 -497 1526 -1075 78 -199 110 -393 110 -669 0 -291 -42 -574 -131
-886 -46 -162 -46 -190 0 -214 26 -13 36 -13 108 6 520 136 1183 441 1613 742
253 177 503 404 663 602 282 349 451 751 532 1265 23 141 32 577 16 736 -103
1027 -620 1834 -1521 2376 -1060 638 -2288 690 -3630 156 -919 -367 -1762
-1000 -2320 -1743 -98 -132 -94 -127 -80 -90 48 128 221 494 480 1015 460 924
587 1221 699 1626 193 698 137 1349 -184 2169 -169 433 -365 820 -865 1710
-543 965 -762 1392 -1107 2150 -196 431 -437 998 -559 1315 -25 63 -52 121
-61 128 -24 18 -77 15 -96 -6z m94 -330 c20 -48 87 -205 148 -350 254 -600
458 -1047 721 -1577 224 -452 346 -680 703 -1315 540 -960 730 -1334 902
-1775 212 -541 295 -957 282 -1404 -10 -320 -60 -572 -187 -945 -110 -323
-202 -526 -610 -1346 -419 -842 -543 -1128 -779 -1793 -184 -519 -420 -1338
-532 -1845 l-23 -103 -202 3 c-190 3 -204 4 -218 23 -14 18 -15 18 -16 3 0
-15 -10 -18 -66 -18 -44 0 -70 5 -80 15 -15 14 -43 10 -56 -9 -8 -12 -522 -22
-633 -11 -44 4 -78 12 -80 18 -1 7 -24 104 -50 217 -125 543 -362 1337 -565
1890 -205 561 -335 855 -730 1650 -323 650 -393 798 -496 1054 -310 766 -359
1343 -175 2051 148 565 380 1068 1006 2180 456 812 562 1010 821 1535 285 580
255 525 284 523 25 -3 25 -3 3 7 -26 11 -26 12 35 141 22 46 67 145 100 219
33 74 79 178 102 230 23 52 48 99 56 105 8 5 16 24 18 40 2 17 30 93 61 170
32 77 79 198 106 269 27 71 53 134 58 140 4 6 16 32 26 59 10 26 20 45 23 42
3 -3 22 -44 43 -93z m-5456 -7718 c863 -88 1802 -467 2569 -1038 361 -268 734
-634 995 -975 237 -310 457 -711 560 -1019 101 -300 266 -865 329 -1122 53
-218 57 -237 42 -255 -7 -8 -10 -19 -6 -22 4 -4 11 -1 15 6 6 9 20 -37 41
-125 17 -77 34 -147 36 -156 5 -17 -24 -18 -519 -18 l-525 0 -63 83 c-138 178
-455 509 -679 708 -130 116 -351 290 -479 378 -389 265 -722 415 -1093 492
-141 29 -169 32 -353 33 -225 1 -358 -15 -536 -64 -420 -116 -759 -314 -1045
-613 -318 -332 -474 -690 -510 -1170 -3 -45 -9 -86 -13 -90 -14 -14 -60 14
-53 32 5 15 4 15 -10 0 -24 -24 -29 -95 -5 -86 6 2 20 1 31 -2 18 -7 18 -8 1
-25 -12 -11 -14 -21 -8 -27 13 -13 46 18 39 37 -3 7 -1 16 4 19 10 6 25 -79
17 -92 -3 -5 5 -87 19 -183 13 -96 24 -178 24 -182 0 -5 -9 -8 -20 -8 -11 0
-20 -4 -20 -10 0 -5 10 -9 23 -7 18 2 23 -4 25 -30 3 -26 -2 -34 -25 -47 l-28
-15 32 -1 c35 0 40 -9 67 -130 8 -36 22 -91 31 -123 9 -33 14 -61 12 -63 -3
-3 -27 1 -53 9 -27 8 -76 22 -109 32 -108 31 -436 165 -620 254 -462 224 -803
457 -1095 750 -283 284 -455 561 -575 926 -245 745 -160 1650 221 2337 317
574 882 1062 1554 1346 563 237 1132 320 1755 256z m11605 -10 c484 -54 972
-220 1410 -480 396 -236 756 -570 990 -920 483 -719 618 -1710 345 -2539 -82
-251 -192 -463 -349 -673 -98 -131 -332 -368 -480 -485 -324 -257 -746 -495
-1200 -676 -167 -67 -413 -147 -423 -138 -3 3 34 152 63 255 2 6 13 12 25 12
21 0 21 1 5 19 -17 18 -16 27 8 173 36 219 39 262 38 468 -1 209 -16 321 -67
505 -87 311 -245 576 -481 805 -296 287 -635 478 -1024 575 -505 126 -974 65
-1505 -196 -295 -145 -600 -354 -910 -623 -187 -163 -543 -529 -657 -676 l-27
-35 -32 19 c-42 25 -61 7 -23 -23 l27 -21 -24 -35 -24 -35 -188 0 c-123 0
-186 3 -182 10 3 6 1 10 -4 10 -6 0 -11 -4 -11 -10 0 -6 -30 -10 -69 -10 -57
0 -70 3 -73 17 -3 16 -4 16 -20 0 -20 -21 -138 -25 -138 -5 0 9 -3 9 -12 0
-16 -16 -382 -17 -373 -2 7 12 49 193 58 255 19 123 221 840 346 1232 211 658
549 1194 1088 1724 402 396 840 709 1353 968 857 434 1753 622 2540 535z
m-3839 -4880 c16 -14 21 -15 35 -3 24 19 139 17 202 -5 60 -20 109 -64 138
-122 14 -29 19 -60 19 -121 0 -74 -3 -85 -30 -125 -40 -57 -102 -87 -194 -95
-76 -6 -101 3 -101 39 0 11 -5 16 -10 13 -6 -4 -8 -15 -5 -25 5 -15 -4 -18
-66 -24 -67 -7 -3814 0 -4552 9 -330 3 -339 4 -385 27 -37 18 -52 34 -74 77
-69 132 -9 294 132 361 l45 21 2414 -5 c2242 -5 2415 -6 2432 -22z m-441 -610
c47 -1 93 -3 103 -3 9 -1 17 -7 17 -15 0 -22 48 -27 55 -6 8 25 24 26 245 25
151 -1 210 -5 259 -19 144 -39 250 -117 301 -219 80 -163 78 -370 -3 -542 -44
-91 -109 -158 -195 -198 l-67 -32 -270 2 c-148 2 -1317 4 -2596 6 l-2325 3
-67 31 c-86 41 -150 105 -193 196 -82 174 -84 381 -4 544 60 122 191 203 375
234 44 7 4140 1 4365 -7z m-5360 -184 c-26 -36 -37 -43 -45 -30 -17 28 -71 -2
-59 -33 5 -15 9 -15 36 -1 23 12 28 12 23 2 -15 -26 -130 -194 -163 -237 -38
-50 -105 -181 -116 -224 -4 -16 -2 -34 4 -42 7 -8 6 -24 -4 -52 -44 -124 -47
-413 -6 -568 58 -223 149 -385 293 -521 124 -119 267 -191 468 -236 145 -32
404 -32 557 0 247 53 402 140 542 306 l55 64 171 0 c94 0 178 -4 185 -9 11 -7
11 -16 -3 -54 l-17 -45 29 15 c15 8 38 30 49 49 15 24 30 35 54 39 54 8 97 -3
111 -30 l12 -25 33 28 c24 20 35 24 40 15 6 -9 11 -8 21 4 10 13 46 15 236 15
123 0 224 -3 224 -6 0 -3 -23 -73 -50 -156 -162 -483 -362 -842 -624 -1115
-167 -175 -340 -299 -586 -422 -567 -282 -1265 -352 -1905 -191 -437 110 -818
325 -1100 621 -340 357 -502 778 -482 1254 18 426 168 787 447 1079 349 364
794 527 1458 535 l133 1 -21 -30z m7360 5 c526 -61 865 -214 1160 -521 232
-242 367 -518 432 -884 19 -111 16 -440 -5 -557 -36 -189 -94 -357 -178 -508
-229 -413 -637 -748 -1134 -931 -477 -175 -1078 -206 -1595 -83 -282 67 -597
199 -805 337 -383 256 -651 607 -869 1138 -39 95 -146 402 -146 418 0 3 113 6
251 6 197 0 249 -3 243 -12 -6 -10 -5 -10 7 -1 11 9 99 11 331 9 l316 -2 88
-91 c171 -174 349 -259 619 -292 360 -44 699 50 912 253 168 159 277 377 314
626 16 114 6 341 -20 445 -21 83 -65 193 -121 305 -39 78 -154 265 -184 300
-56 65 -65 60 105 60 85 0 210 -7 279 -15z m-1450 -969 c135 -1 204 -20 254
-71 54 -54 71 -99 71 -192 0 -74 -3 -85 -30 -125 -19 -27 -48 -52 -80 -68
l-50 -25 -925 0 c-1621 0 -3787 7 -4015 14 -259 7 -272 11 -317 100 -68 133
-14 309 112 366 32 14 256 15 2450 8 1328 -4 2467 -7 2530 -7z m-2058 -616
l148 0 0 -339 0 -339 468 -613 c257 -338 480 -630 495 -650 l27 -36 -74 -99
c-40 -54 -176 -238 -302 -409 -234 -319 -588 -795 -649 -875 -19 -25 -98 -132
-177 -239 -79 -106 -155 -210 -170 -230 -27 -36 -94 -134 -113 -166 -8 -14
-147 171 -763 1008 -413 564 -752 1028 -752 1031 0 3 219 293 486 643 267 351
491 649 496 663 7 16 8 139 5 337 -3 171 -2 315 1 319 4 3 169 4 366 0 198 -3
426 -6 508 -6z"/>
<path d="M9716 18942 c-3 -6 8 -15 25 -21 27 -9 30 -8 27 7 -4 19 -43 29 -52
14z"/>
<path d="M10000 18340 c0 -5 5 -10 10 -10 6 0 10 5 10 10 0 6 -4 10 -10 10 -5
0 -10 -4 -10 -10z"/>
<path d="M9267 18283 c-13 -12 -7 -23 13 -23 13 0 18 5 14 15 -7 16 -17 19
-27 8z"/>
<path d="M9736 18215 c4 -8 7 -15 9 -15 2 0 5 7 9 15 3 9 0 15 -9 15 -9 0 -12
-6 -9 -15z"/>
<path d="M10050 18172 c0 -5 -8 -17 -18 -28 -18 -19 -17 -19 25 -21 49 -2 53
5 18 35 -14 12 -25 18 -25 14z"/>
<path d="M10040 18090 c0 -5 5 -10 10 -10 6 0 10 5 10 10 0 6 -4 10 -10 10 -5
0 -10 -4 -10 -10z"/>
<path d="M10225 18070 c3 -5 8 -10 11 -10 2 0 4 5 4 10 0 6 -5 10 -11 10 -5 0
-7 -4 -4 -10z"/>
<path d="M9922 7072 c4 -12 2 -25 -3 -28 -5 -3 -9 -19 -9 -36 0 -25 3 -29 18
-23 9 4 27 10 39 12 19 5 23 11 21 44 -1 22 -6 39 -12 39 -6 0 -22 3 -35 7
-21 5 -23 3 -19 -15z"/>
<path d="M9707 7063 c-16 -15 -7 -34 13 -28 13 4 20 2 20 -6 0 -7 2 -10 5 -8
2 3 2 15 -2 27 -5 21 -23 29 -36 15z"/>
<path d="M8445 8040 c3 -5 8 -10 11 -10 2 0 4 5 4 10 0 6 -5 10 -11 10 -5 0
-7 -4 -4 -10z"/>
<path d="M8326 7994 c-3 -9 -6 -20 -6 -25 0 -15 70 -10 86 6 18 17 11 19 -16
5 -15 -8 -20 -6 -25 10 -8 24 -30 26 -39 4z"/>
<path d="M1885 7970 c-3 -5 1 -10 10 -10 9 0 13 5 10 10 -3 6 -8 10 -10 10 -2
0 -7 -4 -10 -10z"/>
<path d="M1808 7933 c-14 -17 -11 -19 35 -27 34 -6 37 -5 37 17 0 20 -5 24
-30 24 -17 0 -35 -6 -42 -14z"/>
<path d="M1760 7880 c0 -11 5 -20 10 -20 6 0 8 -10 4 -24 -8 -33 11 -41 36
-16 l21 21 -30 29 c-35 35 -41 37 -41 10z"/>
<path d="M1730 7849 c0 -5 5 -7 10 -4 6 3 10 8 10 11 0 2 -4 4 -10 4 -5 0 -10
-5 -10 -11z"/>
<path d="M1953 7813 c-15 -5 -18 -43 -4 -43 5 0 14 7 21 15 14 17 3 35 -17 28z"/>
<path d="M8253 7705 c-13 -5 -25 -15 -27 -22 -8 -19 33 -63 59 -63 26 0 65 32
46 38 -14 5 -15 32 -1 32 6 0 10 7 10 15 0 18 -4 19 -30 3 -14 -9 -23 -10 -28
-3 -5 7 -14 7 -29 0z"/>
<path d="M1710 7694 c1 -31 47 -75 85 -81 32 -5 35 -3 35 18 0 36 -11 46 -55
54 -22 4 -46 12 -52 18 -10 7 -13 4 -13 -9z"/>
<path d="M1880 7696 c0 -2 7 -9 15 -16 13 -11 14 -10 9 4 -5 14 -24 23 -24 12z"/>
<path d="M8375 7690 c3 -5 12 -10 20 -10 8 0 17 5 20 10 4 6 -5 10 -20 10 -15
0 -24 -4 -20 -10z"/>
<path d="M8641 7658 c-5 -13 -7 -26 -4 -31 8 -13 43 13 43 33 0 27 -29 25 -39
-2z"/>
<path d="M8432 7635 c-50 -36 -14 -47 45 -15 21 11 30 20 21 20 -9 0 -22 2
-30 5 -7 3 -23 -2 -36 -10z"/>
<path d="M8090 7510 c0 -5 7 -10 15 -10 8 0 15 5 15 10 0 6 -7 10 -15 10 -8 0
-15 -4 -15 -10z"/>
<path d="M8241 7486 c-9 -10 -8 -16 4 -26 8 -7 15 -18 15 -26 0 -7 4 -15 8
-18 5 -3 9 15 10 39 0 47 -14 59 -37 31z"/>
<path d="M8022 7478 c-18 -18 -15 -25 14 -31 17 -3 22 -1 16 5 -6 6 -8 17 -5
24 6 17 -9 18 -25 2z"/>
<path d="M8675 7461 c-3 -11 -22 -25 -43 -32 -20 -6 -43 -16 -50 -22 -9 -7
-20 -3 -37 13 -20 19 -28 21 -38 11 -7 -7 -8 -14 -2 -19 6 -4 15 -16 21 -28
17 -29 0 -52 -42 -60 -28 -5 -35 -10 -32 -28 2 -14 9 -20 21 -18 9 2 17 -2 17
-8 0 -17 13 -12 49 19 32 27 34 32 23 56 -16 35 -15 37 8 30 11 -4 20 -2 20 4
0 6 6 11 13 11 7 0 32 9 55 20 33 16 42 26 42 45 0 30 -16 33 -25 6z"/>
<path d="M8130 7356 c0 -16 34 -31 50 -21 22 14 10 35 -20 35 -19 0 -30 -5
-30 -14z"/>
<path d="M2013 7320 c-7 -11 -13 -26 -13 -34 0 -12 4 -12 31 1 18 9 29 21 27
31 -5 24 -31 26 -45 2z"/>
<path d="M2267 7316 c-7 -18 15 -27 34 -15 12 8 12 10 -1 19 -20 13 -27 12
-33 -4z"/>
<path d="M1872 7251 c2 -7 7 -12 11 -12 12 1 9 15 -3 20 -7 2 -11 -2 -8 -8z"/>
<path d="M1975 7250 c-3 -5 1 -10 9 -10 9 0 16 5 16 10 0 6 -4 10 -9 10 -6 0
-13 -4 -16 -10z"/>
<path d="M8030 7245 c-9 -11 -10 -19 -3 -26 7 -7 14 -5 23 6 9 11 10 19 3 26
-7 7 -14 5 -23 -6z"/>
<path d="M8112 7242 c-2 -7 2 -21 11 -30 15 -14 18 -14 35 1 10 9 22 14 27 10
4 -5 2 2 -4 14 -13 25 -60 28 -69 5z"/>
<path d="M8597 7253 c-4 -3 -7 -17 -7 -30 0 -21 5 -23 45 -23 46 0 53 7 35 41
-10 19 -59 27 -73 12z"/>
<path d="M2580 7230 c-14 -9 -10 -42 6 -47 12 -4 44 23 44 37 0 11 -36 19 -50
10z"/>
<path d="M8806 7225 c-3 -8 -1 -15 4 -15 6 0 10 7 10 15 0 8 -2 15 -4 15 -2 0
-6 -7 -10 -15z"/>
<path d="M8230 7204 c-18 -10 -21 -14 -10 -18 20 -8 73 7 77 21 5 14 -36 13
-67 -3z"/>
<path d="M8492 7188 c-7 -7 -12 -20 -12 -30 0 -16 5 -18 38 -12 20 4 40 9 45
11 15 9 6 31 -15 37 -33 8 -43 7 -56 -6z"/>
<path d="M7827 7133 c-13 -12 -7 -53 7 -53 20 0 39 27 32 45 -6 15 -28 20 -39
8z"/>
<path d="M7993 7123 c-18 -6 -16 -23 1 -23 17 0 30 16 19 23 -5 2 -14 2 -20 0z"/>
<path d="M2036 7103 c-11 -11 -6 -23 9 -23 8 0 15 4 15 9 0 13 -16 22 -24 14z"/>
<path d="M2101 7074 c-9 -22 -8 -30 9 -54 11 -16 30 -30 43 -32 13 -2 22 -10
22 -20 0 -10 4 -18 10 -18 5 0 10 7 10 15 0 8 3 15 8 15 41 1 41 0 21 -15 -18
-14 -18 -14 9 -15 29 0 33 12 17 54 -5 14 -17 26 -26 26 -9 0 -32 16 -51 35
-42 42 -56 44 -72 9z"/>
<path d="M1980 7065 c0 -8 7 -15 15 -15 8 0 15 7 15 15 0 8 -7 15 -15 15 -8 0
-15 -7 -15 -15z"/>
<path d="M8260 7060 c0 -5 9 -10 20 -10 11 0 20 5 20 10 0 6 -9 10 -20 10 -11
0 -20 -4 -20 -10z"/>
<path d="M2048 7053 c6 -2 18 -2 25 0 6 3 1 5 -13 5 -14 0 -19 -2 -12 -5z"/>
<path d="M2510 7005 c-10 -13 -9 -15 9 -15 11 0 21 4 21 9 0 18 -18 21 -30 6z"/>
<path d="M2946 7005 c4 -8 7 -15 9 -15 2 0 5 7 9 15 3 9 0 15 -9 15 -9 0 -12
-6 -9 -15z"/>
<path d="M3027 7003 c-9 -9 24 -32 47 -33 18 0 18 1 1 20 -18 20 -36 25 -48
13z"/>
<path d="M2059 6988 c-5 -48 9 -86 33 -90 15 -2 24 -13 30 -37 5 -18 13 -38
19 -45 5 -6 18 -22 29 -34 19 -23 19 -23 44 -5 34 24 32 36 -9 59 -37 20 -66
74 -39 74 7 0 14 5 14 11 0 5 -5 7 -10 4 -6 -3 -13 1 -16 9 -3 9 -17 16 -30
16 -14 0 -24 6 -24 15 0 19 -39 41 -41 23z"/>
<path d="M2920 6969 c0 -5 5 -7 10 -4 6 3 10 8 10 11 0 2 -4 4 -10 4 -5 0 -10
-5 -10 -11z"/>
<path d="M3030 6940 c-12 -8 -11 -10 8 -10 12 0 22 5 22 10 0 13 -11 13 -30 0z"/>
<path d="M2255 6920 c3 -5 8 -10 11 -10 2 0 4 5 4 10 0 6 -5 10 -11 10 -5 0
-7 -4 -4 -10z"/>
<path d="M2346 6884 c-7 -18 0 -34 15 -34 12 0 12 37 0 44 -5 3 -12 -1 -15
-10z"/>
<path d="M2730 6820 c0 -5 9 -14 20 -20 22 -12 27 -1 8 18 -14 14 -28 16 -28
2z"/>
<path d="M2321 6791 c-9 -6 -10 -11 -2 -15 6 -4 11 -16 11 -27 0 -13 10 -24
30 -30 17 -6 30 -15 30 -20 0 -5 9 -9 20 -9 11 0 20 -4 20 -10 0 -5 5 -10 11
-10 13 0 2 39 -19 63 -8 9 -22 17 -31 17 -8 0 -24 11 -36 25 -14 17 -24 22
-34 16z"/>
<path d="M3070 6781 c0 -12 5 -21 10 -21 6 0 10 6 10 14 0 8 -4 18 -10 21 -5
3 -10 -3 -10 -14z"/>
<path d="M3090 6731 c0 -6 4 -13 10 -16 6 -3 7 1 4 9 -7 18 -14 21 -14 7z"/>
<path d="M2660 6721 c0 -29 14 -41 51 -41 30 0 37 3 33 15 -4 8 -17 15 -29 15
-13 0 -27 5 -30 10 -8 13 -25 13 -25 1z"/>
<path d="M2248 6703 c6 -2 18 -2 25 0 6 3 1 5 -13 5 -14 0 -19 -2 -12 -5z"/>
<path d="M2540 6630 c0 -5 9 -10 20 -10 11 0 20 5 20 10 0 6 -9 10 -20 10 -11
0 -20 -4 -20 -10z"/>
<path d="M2595 6620 c-3 -6 1 -13 10 -16 19 -8 30 0 20 15 -8 14 -22 14 -30 1z"/>
<path d="M2390 6570 c0 -19 3 -21 12 -12 9 9 9 15 0 24 -9 9 -12 7 -12 -12z"/>
<path d="M2770 6550 c0 -5 5 -10 10 -10 6 0 10 5 10 10 0 6 -4 10 -10 10 -5 0
-10 -4 -10 -10z"/>
<path d="M2700 6186 c0 -9 7 -16 16 -16 9 0 14 5 12 12 -6 18 -28 21 -28 4z"/>
<path d="M2910 6075 c-11 -13 -15 -13 -22 -3 -6 9 -8 3 -6 -17 3 -26 8 -31 41
-36 44 -7 51 0 42 41 -7 33 -34 40 -55 15z"/>
<path d="M3170 5915 c7 -8 21 -15 32 -15 17 0 18 3 8 15 -7 8 -21 15 -32 15
-17 0 -18 -3 -8 -15z"/>
<path d="M3100 5850 c0 -5 5 -10 11 -10 5 0 7 5 4 10 -3 6 -8 10 -11 10 -2 0
-4 -4 -4 -10z"/>
<path d="M10985 7856 c-18 -13 -18 -17 -5 -40 19 -37 45 -30 45 13 0 39 -12
47 -40 27z"/>
<path d="M10945 7730 c-8 -14 3 -30 21 -30 8 0 14 9 14 20 0 21 -24 28 -35 10z"/>
<path d="M11001 7714 c0 -11 3 -14 6 -6 3 7 2 16 -1 19 -3 4 -6 -2 -5 -13z"/>
<path d="M11130 7668 c0 -17 18 -44 24 -37 8 7 -5 49 -15 49 -5 0 -9 -6 -9
-12z"/>
<path d="M10947 7643 c-3 -5 -1 -18 4 -30 10 -27 54 -31 85 -9 17 13 18 15 2
21 -9 4 -22 4 -28 0 -5 -3 -13 1 -16 9 -6 16 -39 22 -47 9z"/>
<path d="M11098 7556 c-20 -15 -24 -46 -7 -46 6 0 13 9 16 20 3 11 9 20 14 20
5 0 9 5 9 10 0 13 -11 12 -32 -4z"/>
<path d="M17743 7558 c-22 -29 -23 -36 -3 -31 11 3 20 14 20 24 0 22 -4 24
-17 7z"/>
<path d="M10853 7537 c-24 -6 -43 -14 -43 -19 0 -6 8 -7 18 -3 39 17 86 4 90
-26 4 -24 28 -48 50 -49 19 0 15 50 -5 57 -10 4 -22 12 -26 20 -14 23 -41 30
-84 20z"/>
<path d="M10792 7480 c-24 -23 -21 -40 7 -40 28 0 43 23 28 44 -11 16 -14 15
-35 -4z"/>
<path d="M11007 7419 c-9 -6 -15 -14 -12 -20 10 -15 22 -10 28 11 3 11 4 20 4
20 -1 0 -10 -5 -20 -11z"/>
<path d="M17467 7368 c-11 -9 -16 -20 -11 -31 8 -23 82 -24 91 -1 11 30 -49
55 -80 32z"/>
<path d="M11032 7348 c-24 -24 -8 -63 36 -87 20 -11 22 -9 22 12 0 14 -7 31
-16 38 -9 7 -19 21 -23 31 -5 15 -9 16 -19 6z"/>
<path d="M10813 7225 c-16 -17 -16 -32 -3 -40 17 -10 38 14 33 35 -6 23 -13
25 -30 5z"/>
<path d="M17445 7230 c-3 -5 -15 -10 -26 -10 -24 0 -25 -26 -1 -34 9 -3 25
-11 35 -18 14 -11 19 -10 27 2 8 12 10 12 10 1 0 -8 7 -11 20 -8 18 5 20 0 20
-44 0 -42 3 -49 20 -49 13 0 20 7 20 19 0 11 9 23 20 26 11 3 25 15 30 26 9
16 7 19 -13 19 -14 0 -30 7 -38 16 -7 8 -20 13 -30 11 -12 -3 -15 0 -12 14 8
27 -67 54 -82 29z"/>
<path d="M11120 7220 c0 -5 4 -10 9 -10 6 0 13 5 16 10 3 6 -1 10 -9 10 -9 0
-16 -4 -16 -10z"/>
<path d="M10750 7182 c0 -15 5 -18 25 -14 29 5 29 5 -2 21 -20 10 -23 9 -23
-7z"/>
<path d="M11153 7168 c6 -29 -7 -74 -20 -71 -8 2 -8 -8 0 -32 6 -19 14 -35 18
-35 5 0 6 7 3 15 -5 11 1 15 26 15 17 0 29 -4 26 -9 -10 -16 5 -41 24 -41 20
0 34 26 20 35 -16 10 -12 35 5 35 8 0 15 9 15 19 0 10 -7 21 -15 25 -9 3 -15
18 -15 36 0 29 -1 30 -46 30 -43 0 -46 -2 -41 -22z m77 -58 c0 -5 -4 -10 -10
-10 -5 0 -10 5 -10 10 0 6 5 10 10 10 6 0 10 -4 10 -10z"/>
<path d="M11472 7128 c7 -19 31 -21 53 -4 19 15 18 15 -18 16 -27 0 -37 -4
-35 -12z"/>
<path d="M11312 7095 c6 -14 17 -25 23 -25 7 0 18 -7 25 -15 15 -18 40 -20 40
-2 0 18 -59 67 -81 67 -16 0 -17 -3 -7 -25z"/>
<path d="M11562 7094 c4 -21 22 -23 26 -1 2 10 -3 17 -13 17 -10 0 -15 -6 -13
-16z"/>
<path d="M10830 7020 c0 -13 5 -20 13 -17 6 2 12 10 12 17 0 7 -6 15 -12 18
-8 2 -13 -5 -13 -18z"/>
<path d="M11451 7021 c-10 -7 -10 -10 -1 -16 6 -4 16 -3 22 3 13 13 -4 23 -21
13z"/>
<path d="M10595 7000 c-3 -5 1 -10 10 -10 9 0 13 5 10 10 -3 6 -8 10 -10 10
-2 0 -7 -4 -10 -10z"/>
<path d="M11150 6971 c0 -6 5 -13 10 -16 6 -3 10 1 10 9 0 9 -4 16 -10 16 -5
0 -10 -4 -10 -9z"/>
<path d="M16910 6875 c0 -8 5 -15 10 -15 6 0 10 7 10 15 0 8 -4 15 -10 15 -5
0 -10 -7 -10 -15z"/>
<path d="M16675 6610 c-3 -5 1 -10 9 -10 9 0 16 5 16 10 0 6 -4 10 -9 10 -6 0
-13 -4 -16 -10z"/>
<path d="M16770 6566 c0 -8 5 -18 10 -21 6 -3 10 3 10 14 0 12 -4 21 -10 21
-5 0 -10 -6 -10 -14z"/>
<path d="M16470 6463 c-28 -11 -29 -28 -2 -50 15 -12 41 -22 57 -23 26 0 30 3
30 28 0 15 -4 33 -8 40 -8 12 -50 15 -77 5z"/>
<path d="M16775 6420 c-78 -11 -95 -19 -88 -38 4 -11 -4 -8 -24 11 -37 34 -43
34 -43 -3 0 -26 5 -31 30 -36 41 -9 41 -49 1 -85 -37 -33 -33 -67 10 -76 16
-3 29 -8 30 -12 8 -89 12 -101 35 -101 16 0 19 36 4 45 -20 12 -10 26 11 15
24 -13 38 -5 21 12 -18 18 -15 43 7 62 15 13 20 14 24 4 3 -9 11 -7 30 10 17
16 26 20 29 11 2 -7 11 -10 21 -6 14 5 15 10 5 32 -10 23 -38 35 -38 18 -1 -5
-10 -19 -20 -32 -15 -17 -24 -21 -33 -13 -6 6 -29 13 -49 17 -42 8 -45 17 -22
63 10 20 23 32 36 32 11 0 32 9 46 20 23 18 27 19 34 5 12 -20 35 -19 77 4
l35 19 -32 7 c-17 3 -34 11 -37 16 -7 10 -27 10 -100 -1z"/>
<path d="M16545 6330 c-11 -17 4 -48 27 -54 28 -7 29 -6 19 30 -8 30 -34 44
-46 24z"/>
<path d="M16440 6297 c0 -8 7 -28 16 -45 8 -18 13 -36 10 -41 -3 -5 1 -11 9
-15 8 -3 15 -12 15 -20 0 -14 29 -26 68 -26 17 0 26 -8 33 -30 6 -16 15 -30
20 -30 15 0 10 36 -6 50 -20 17 -19 27 5 33 28 7 15 37 -16 37 -20 0 -24 5
-24 28 0 30 -30 52 -70 52 -10 0 -22 5 -25 10 -9 15 -35 12 -35 -3z"/>
<path d="M16820 6159 c0 -5 5 -7 10 -4 6 3 10 8 10 11 0 2 -4 4 -10 4 -5 0
-10 -5 -10 -11z"/>
<path d="M16450 6080 c0 -5 -10 -10 -21 -10 -20 0 -20 -1 -6 -24 15 -22 14
-25 -9 -47 -29 -27 -31 -39 -4 -39 11 0 25 -9 32 -20 7 -11 18 -20 24 -20 11
0 24 44 24 82 0 10 12 30 26 43 l25 24 -38 10 c-47 13 -53 14 -53 1z"/>
<path d="M16442 5879 c-7 -10 -12 -28 -12 -40 0 -16 4 -19 23 -14 50 16 87 53
55 57 -7 0 -17 2 -23 2 -5 1 -15 4 -20 8 -6 4 -16 -2 -23 -13z"/>
<path d="M12258 6754 c3 -17 14 -29 33 -36 16 -5 29 -14 29 -19 0 -5 9 -9 20
-9 11 0 20 -4 20 -10 0 -5 5 -10 11 -10 13 0 2 39 -19 63 -8 9 -23 17 -32 17
-10 0 -23 7 -30 15 -20 24 -38 18 -32 -11z"/>
<path d="M12188 6703 c7 -3 16 -2 19 1 4 3 -2 6 -13 5 -11 0 -14 -3 -6 -6z"/>
<path d="M12320 6570 c0 -19 3 -21 12 -12 9 9 9 15 0 24 -9 9 -12 7 -12 -12z"/>
<path d="M12217 6440 l-27 -28 40 -4 c43 -4 52 10 27 44 -12 15 -16 14 -40
-12z"/>
<path d="M7380 6442 c0 -22 13 -42 27 -42 21 0 12 44 -9 48 -10 2 -18 -1 -18
-6z"/>
<path d="M7616 6155 c-3 -8 -1 -15 4 -15 13 0 22 18 11 24 -5 3 -11 -1 -15 -9z"/>
<path d="M11630 6135 c7 -8 16 -15 21 -15 5 0 6 7 3 15 -4 8 -13 15 -21 15
-13 0 -13 -3 -3 -15z"/>
<path d="M12123 5988 c2 -7 12 -13 22 -13 10 0 20 6 23 13 2 7 -6 12 -23 12
-17 0 -25 -5 -22 -12z"/>
<path d="M7030 5955 c-10 -12 -10 -15 4 -15 9 0 16 7 16 15 0 8 -2 15 -4 15
-2 0 -9 -7 -16 -15z"/>
<path d="M7102 5948 c-17 -17 -15 -24 15 -54 l27 -27 9 32 c12 48 -20 80 -51
49z"/>
<path d="M12280 5730 c0 -5 6 -10 14 -10 8 0 18 5 21 10 3 6 -3 10 -14 10 -12
0 -21 -4 -21 -10z"/>
<path d="M7090 5661 c0 -14 50 -71 62 -71 6 0 7 11 4 26 -6 23 -4 26 14 21 16
-4 20 -1 18 11 -2 13 -16 18 -51 20 -26 2 -47 -1 -47 -7z"/>
<path d="M7273 5583 c9 -9 19 -14 23 -11 10 10 -6 28 -24 28 -15 0 -15 -1 1
-17z"/>
<path d="M6955 5560 c3 -5 10 -10 16 -10 5 0 9 5 9 10 0 6 -7 10 -16 10 -8 0
-12 -4 -9 -10z"/>
<path d="M7399 5329 c-32 -34 -38 -55 -13 -45 10 4 25 -1 35 -10 40 -36 88 28
52 69 -23 25 -41 21 -74 -14z"/>
<path d="M12066 5352 c-7 -11 23 -46 31 -38 3 3 -2 14 -10 26 -8 12 -18 17
-21 12z"/>
<path d="M7150 5276 c0 -2 7 -6 15 -10 8 -3 15 -1 15 4 0 6 -7 10 -15 10 -8 0
-15 -2 -15 -4z"/>
<path d="M12253 5225 c-17 -19 -16 -25 2 -25 8 0 15 9 15 20 0 23 -1 24 -17 5z"/>
<path d="M11910 5210 c0 -5 11 -10 25 -10 14 0 25 5 25 10 0 6 -11 10 -25 10
-14 0 -25 -4 -25 -10z"/>
<path d="M5808 5938 c-20 -7 -28 -17 -28 -34 0 -21 -3 -24 -25 -18 -31 8 -33
-10 -6 -45 25 -33 51 -22 51 22 0 31 3 34 45 45 28 7 45 18 45 27 0 17 -40 19
-82 3z"/>
<path d="M5915 5911 c-3 -5 0 -21 6 -35 14 -30 -1 -56 -33 -56 -11 0 -22 -9
-25 -20 -3 -11 -11 -20 -18 -20 -7 0 -26 -16 -42 -35 -20 -22 -39 -35 -55 -35
-32 0 -40 -8 -28 -30 15 -28 1 -55 -50 -94 l-49 -38 -31 18 c-24 15 -32 16
-42 5 -11 -10 -9 -15 6 -26 21 -16 25 -77 7 -83 -20 -7 -12 -40 11 -48 14 -4
25 -1 33 10 15 20 29 20 45 1 7 -8 16 -12 21 -9 13 7 -9 44 -25 44 -8 0 -16 6
-18 13 -9 24 4 37 36 37 25 0 35 -6 44 -25 15 -33 32 -32 32 1 0 27 11 28 64
8 10 -4 16 -1 16 7 0 7 7 21 17 31 16 17 15 18 -27 16 -58 -4 -73 18 -36 55
16 16 26 37 26 56 0 43 17 81 36 81 9 0 18 9 21 20 3 11 9 20 13 20 5 0 15 7
23 15 13 13 16 11 26 -15 10 -31 34 -39 48 -17 9 15 4 58 -9 74 -6 8 -4 20 8
38 15 23 15 28 3 36 -18 11 -46 11 -54 0z"/>
<path d="M5743 5806 c4 -10 7 -26 7 -37 0 -12 5 -16 15 -13 21 8 19 20 -7 46
-17 17 -20 18 -15 4z"/>
<path d="M5430 5730 c0 -5 4 -10 9 -10 6 0 13 5 16 10 3 6 -1 10 -9 10 -9 0
-16 -4 -16 -10z"/>
<path d="M5920 5680 c0 -11 -1 -23 -2 -27 -1 -5 5 -9 13 -11 8 -1 22 11 31 28
l17 30 -29 0 c-23 0 -30 -5 -30 -20z"/>
<path d="M5840 5680 c0 -5 7 -10 15 -10 8 0 15 5 15 10 0 6 -7 10 -15 10 -8 0
-15 -4 -15 -10z"/>
<path d="M5340 5626 c0 -16 24 -39 32 -30 3 3 4 14 1 25 -6 22 -33 26 -33 5z"/>
<path d="M5490 5574 c0 -8 5 -12 10 -9 6 3 10 10 10 16 0 5 -4 9 -10 9 -5 0
-10 -7 -10 -16z"/>
<path d="M5396 5527 c-15 -11 -15 -16 -4 -37 9 -17 20 -24 33 -22 16 3 18 1 8
-9 -7 -7 -13 -24 -13 -37 0 -20 4 -23 28 -20 15 2 28 9 28 16 1 6 2 17 3 22 0
6 8 10 16 10 8 0 15 5 15 10 0 6 6 10 14 10 21 0 31 21 15 30 -7 5 -35 12 -61
15 -26 4 -48 11 -48 16 0 13 -13 11 -34 -4z"/>
<path d="M5300 5463 c0 -5 5 -15 10 -23 7 -11 12 -12 21 -3 6 6 8 16 5 22 -8
12 -36 15 -36 4z"/>
<path d="M8291 4132 c-14 -27 -4 -52 20 -52 29 0 35 28 11 52 l-20 20 -11 -20z"/>
<path d="M8450 4095 c0 -8 7 -15 15 -15 8 0 15 7 15 15 0 8 -7 15 -15 15 -8 0
-15 -7 -15 -15z"/>
<path d="M8410 4091 c0 -20 13 -41 21 -35 15 9 10 44 -6 44 -8 0 -15 -4 -15
-9z"/>
<path d="M13365 5901 c-3 -6 4 -15 15 -21 20 -11 21 -10 10 9 -12 23 -16 25
-25 12z"/>
<path d="M13673 5763 c-16 -6 -5 -33 13 -33 8 0 14 3 14 8 0 15 -15 29 -27 25z"/>
<path d="M13729 5759 c-10 -6 -4 -9 19 -9 17 0 32 2 32 4 0 9 -39 13 -51 5z"/>
<path d="M13755 5490 c-7 -11 32 -90 44 -90 19 0 32 29 22 48 -14 26 -58 54
-66 42z"/>
<path d="M13885 5480 c-6 -10 40 -89 59 -102 17 -12 40 -9 61 6 19 14 19 15 2
33 -9 11 -17 25 -17 32 0 19 -95 48 -105 31z"/>
<path d="M14360 5475 c0 -8 7 -15 16 -15 14 0 14 3 4 15 -7 8 -14 15 -16 15
-2 0 -4 -7 -4 -15z"/>
<path d="M14386 5355 c4 -8 12 -15 20 -15 8 0 11 6 8 15 -4 8 -12 15 -20 15
-8 0 -11 -6 -8 -15z"/>
<path d="M14430 5340 c0 -5 5 -10 11 -10 5 0 7 5 4 10 -3 6 -8 10 -11 10 -2 0
-4 -4 -4 -10z"/>
<path d="M11457 4240 c-4 -14 0 -20 13 -20 20 0 43 23 33 33 -13 14 -41 6 -46
-13z"/>
<path d="M11621 4214 c0 -11 3 -14 6 -6 3 7 2 16 -1 19 -3 4 -6 -2 -5 -13z"/>
<path d="M11215 3930 c-3 -5 -1 -10 4 -10 6 0 11 5 11 10 0 6 -2 10 -4 10 -3
0 -8 -4 -11 -10z"/>
<path d="M11329 3904 c-12 -14 -11 -16 5 -13 11 2 21 10 24 17 5 17 -13 15
-29 -4z"/>
<path d="M7292 5008 c-7 -7 -12 -18 -12 -25 0 -7 -7 -13 -15 -13 -15 0 -20
-12 -9 -23 14 -14 74 34 74 59 0 17 -22 18 -38 2z"/>
<path d="M7281 4874 c0 -11 3 -14 6 -6 3 7 2 16 -1 19 -3 4 -6 -2 -5 -13z"/>
<path d="M12320 4841 c0 -10 7 -24 15 -31 13 -11 15 -9 15 13 0 14 -7 27 -15
31 -10 3 -15 -1 -15 -13z"/>
<path d="M7315 4800 c4 -6 11 -8 16 -5 14 9 11 15 -7 15 -8 0 -12 -5 -9 -10z"/>
<path d="M7400 4783 c0 -5 5 -15 10 -23 8 -12 10 -11 10 8 0 12 -4 22 -10 22
-5 0 -10 -3 -10 -7z"/>
<path d="M7152 4731 c4 -13 18 -16 19 -4 0 4 -5 9 -11 12 -7 2 -11 -2 -8 -8z"/>
<path d="M12275 4590 c-4 -6 3 -10 14 -10 25 0 27 6 6 13 -8 4 -17 2 -20 -3z"/>
<path d="M9916 1125 c-3 -9 1 -18 10 -22 19 -7 28 2 21 22 -8 19 -23 19 -31 0z"/>
<path d="M9814 1054 c3 -9 6 -18 6 -20 0 -2 7 -4 15 -4 13 0 14 4 5 20 -13 24
-35 27 -26 4z"/>
<path d="M10030 840 c0 -13 7 -20 20 -20 13 0 20 7 20 20 0 13 -7 20 -20 20
-13 0 -20 -7 -20 -20z"/>
<path d="M9878 633 c7 -3 16 -2 19 1 4 3 -2 6 -13 5 -11 0 -14 -3 -6 -6z"/>
<path d="M9826 585 c-12 -9 -20 -31 -23 -62 l-4 -48 23 30 c30 38 50 95 34 95
-6 0 -19 -7 -30 -15z"/>
</g>
</svg>
